<svg xmlns="http://www.w3.org/2000/svg" width="1440" height="900">
  <defs>
    <linearGradient id="bg" x1="0" y1="0" x2="1" y2="1">
      <stop offset="0" stop-color="#0d1c33" />
      <stop offset="1" stop-color="#1f3d99" />
    </linearGradient>
  </defs>
  <rect width="100%" height="100%" fill="url(#bg)" />
  <g transform="translate(72 64)">
    <rect width="1296" height="776" rx="36" fill="#f5f7ff" />
    <text x="96" y="128" font-family="Segoe UI, Arial" font-size="34" font-weight="700" fill="#1e2a48">Colaboracion territorial</text>
    <text x="96" y="166" font-family="Segoe UI, Arial" font-size="18" fill="#566087">Alianzas, roadmap y casos piloto.</text>
    <g transform="translate(96 212)">
      <rect width="360" height="460" rx="26" fill="#ffffff" stroke="#dde3f7" />
      <text x="28" y="50" font-family="Segoe UI, Arial" font-size="22" font-weight="600" fill="#1f2a44">Alianzas clave</text>
      <rect x="28" y="72" width="304" height="86" rx="18" fill="#f0f3ff" />
      <text x="44" y="108" font-family="Segoe UI, Arial" font-size="18" fill="#1f2a44">PNC - Ministerio</text>
      <rect x="28" y="170" width="304" height="86" rx="18" fill="#f0f3ff" />
      <text x="44" y="206" font-family="Segoe UI, Arial" font-size="18" fill="#1f2a44">MP - Fiscalias</text>
      <rect x="28" y="268" width="304" height="86" rx="18" fill="#f0f3ff" />
      <text x="44" y="304" font-family="Segoe UI, Arial" font-size="18" fill="#1f2a44">SVET</text>
    </g>
    <g transform="translate(484 212)">
      <rect width="428" height="220" rx="26" fill="#ffffff" stroke="#dde3f7" />
      <text x="32" y="50" font-family="Segoe UI, Arial" font-size="22" font-weight="600" fill="#1f2a44">Roadmap</text>
      <g transform="translate(32 74)">
        <circle cx="18" cy="18" r="18" fill="#1b9ea6" />
        <text x="52" y="24" font-family="Segoe UI, Arial" font-size="18" fill="#1f2a44">Fase 1 - Diagnostico</text>
        <circle cx="18" cy="78" r="18" fill="#1b9ea6" opacity="0.7" />
        <text x="52" y="84" font-family="Segoe UI, Arial" font-size="18" fill="#1f2a44">Fase 2 - Implementacion</text>
        <circle cx="18" cy="138" r="18" fill="#1b9ea6" opacity="0.4" />
        <text x="52" y="144" font-family="Segoe UI, Arial" font-size="18" fill="#1f2a44">Fase 3 - Escalamiento</text>
      </g>
    </g>
    <g transform="translate(484 456)">
      <rect width="428" height="216" rx="26" fill="#10172a" />
      <text x="32" y="52" font-family="Segoe UI, Arial" font-size="20" fill="#53d8ff">Casos piloto</text>
      <text x="32" y="88" font-family="Segoe UI, Arial" font-size="18" fill="#ffffff">Mixco - Zona 6 -14% incidentes</text>
      <text x="32" y="122" font-family="Segoe UI, Arial" font-size="18" fill="#ffffff">Villa Nueva - rutas seguras</text>
      <text x="32" y="156" font-family="Segoe UI, Arial" font-size="18" fill="#ffffff">Coban - lideresas activas</text>
    </g>
    <g transform="translate(936 212)">
      <rect width="280" height="460" rx="26" fill="#ffffff" stroke="#dde3f7" />
      <text x="24" y="52" font-family="Segoe UI, Arial" font-size="22" font-weight="600" fill="#1f2a44">Metrica impacto</text>
      <rect x="24" y="76" width="232" height="120" rx="20" fill="#f0f4ff" />
      <text x="44" y="116" font-family="Segoe UI, Arial" font-size="36" font-weight="700" fill="#1f3d99">+28%</text>
      <text x="44" y="146" font-family="Segoe UI, Arial" font-size="14" fill="#4b5a88">Participacion comunitaria</text>
      <rect x="24" y="212" width="232" height="120" rx="20" fill="#f0f4ff" />
      <text x="44" y="252" font-family="Segoe UI, Arial" font-size="36" font-weight="700" fill="#1f3d99">18</text>
      <text x="44" y="282" font-family="Segoe UI, Arial" font-size="14" fill="#4b5a88">Instituciones articuladas</text>
      <rect x="24" y="348" width="232" height="80" rx="20" fill="#1f3d99" />
      <text x="60" y="398" font-family="Segoe UI, Arial" font-size="18" fill="#ffffff">Descargar plan</text>
    </g>
  </g>
</svg>
