<svg xmlns="http://www.w3.org/2000/svg" width="420" height="880">
  <defs>
    <linearGradient id="bg" x1="0" y1="0" x2="1" y2="1">
      <stop offset="0" stop-color="#1f3d99" />
      <stop offset="1" stop-color="#1b9ea6" />
    </linearGradient>
  </defs>
  <rect width="100%" height="100%" fill="url(#bg)" />
  <g transform="translate(28 60)">
    <rect width="364" height="760" rx="28" fill="#f5f7ff" opacity="0.96" />
    <g transform="translate(30 36)">
      <text x="0" y="0" font-family="Segoe UI, Arial" font-size="20" font-weight="600" fill="#1e2a48">SeguridadGT</text>
      <rect x="220" y="-14" width="104" height="40" rx="14" fill="#4b7bec" />
      <text x="236" y="10" font-family="Segoe UI, Arial" font-size="14" fill="#ffffff">Reportar</text>
      <rect x="0" y="28" width="324" height="180" rx="22" fill="#1f3d99" />
      <text x="20" y="72" font-family="Segoe UI, Arial" font-size="16" fill="#cbd6ff">Cobertura 2025</text>
      <text x="20" y="112" font-family="Segoe UI, Arial" font-size="26" font-weight="700" fill="#ffffff">Comunidades seguras.</text>
      <rect x="20" y="134" width="130" height="34" rx="12" fill="#ffffff" opacity="0.9" />
      <text x="32" y="158" font-family="Segoe UI, Arial" font-size="16" fill="#1f3d99">Ver datos</text>
    </g>
    <g transform="translate(30 268)">
      <text x="0" y="0" font-family="Segoe UI, Arial" font-size="18" font-weight="600" fill="#1e2a48">Modulos clave</text>
      <g transform="translate(0 20)">
        <rect width="324" height="140" rx="18" fill="#ffffff" stroke="#dde3f7" />
        <text x="24" y="50" font-family="Segoe UI, Arial" font-size="20" font-weight="600" fill="#1e2a48">Observatorio</text>
        <text x="24" y="80" font-family="Segoe UI, Arial" font-size="14" fill="#5a648c">Mapas y indicadores.</text>
      </g>
      <g transform="translate(0 170)">
        <rect width="324" height="140" rx="18" fill="#ffffff" stroke="#dde3f7" />
        <text x="24" y="50" font-family="Segoe UI, Arial" font-size="20" font-weight="600" fill="#1e2a48">Denuncias</text>
        <text x="24" y="80" font-family="Segoe UI, Arial" font-size="14" fill="#5a648c">Ruta guiada y seguimiento.</text>
      </g>
      <g transform="translate(0 320)">
        <rect width="324" height="140" rx="18" fill="#10172a" />
        <text x="24" y="60" font-family="Segoe UI, Arial" font-size="20" font-weight="600" fill="#ffffff">Alertas</text>
        <text x="24" y="92" font-family="Segoe UI, Arial" font-size="14" fill="rgba(255,255,255,0.7)">Zona 6 - Extorsion</text>
      </g>
    </g>
  </g>
</svg>
