<svg xmlns="http://www.w3.org/2000/svg" width="1440" height="900">
  <defs>
    <linearGradient id="bg" x1="0" y1="0" x2="1" y2="1">
      <stop offset="0" stop-color="#0e1a40" />
      <stop offset="0.55" stop-color="#1f3d99" />
      <stop offset="1" stop-color="#1b9ea6" />
    </linearGradient>
    <linearGradient id="hero" x1="0" y1="0" x2="1" y2="1">
      <stop offset="0" stop-color="#4b7bec" />
      <stop offset="1" stop-color="#1b9ea6" />
    </linearGradient>
  </defs>
  <rect width="100%" height="100%" fill="url(#bg)" />
  <g transform="translate(72 64)">
    <rect width="1296" height="776" rx="36" fill="#f5f7ff" opacity="0.95" />
    <g transform="translate(64 48)">
      <text x="0" y="0" font-family="Segoe UI, Arial" font-size="18" fill="#3e4a71">SeguridadGT</text>
      <text x="180" y="0" font-family="Segoe UI, Arial" font-size="18" fill="#7c88a6">Inicio</text>
      <text x="260" y="0" font-family="Segoe UI, Arial" font-size="18" fill="#7c88a6">Observatorio</text>
      <text x="404" y="0" font-family="Segoe UI, Arial" font-size="18" fill="#7c88a6">Denuncias</text>
      <text x="520" y="0" font-family="Segoe UI, Arial" font-size="18" fill="#7c88a6">Colaboracion</text>
      <text x="676" y="0" font-family="Segoe UI, Arial" font-size="18" fill="#7c88a6">Mockups</text>
      <rect x="1130" y="-24" width="180" height="48" rx="16" fill="#4b7bec" />
      <text x="1170" y="6" font-family="Segoe UI, Arial" font-size="18" fill="#ffffff">Reportar</text>
    </g>
    <g transform="translate(64 108)">
      <rect width="820" height="220" rx="24" fill="url(#hero)" />
      <text x="40" y="56" font-family="Segoe UI, Arial" font-size="16" fill="#cbd6ff">Estrategia integral 2025</text>
      <text x="40" y="110" font-family="Segoe UI, Arial" font-size="40" font-weight="700" fill="#ffffff">Seguridad ciudadana informada.</text>
      <text x="40" y="152" font-family="Segoe UI, Arial" font-size="18" fill="#e3ecff">Datos, denuncias y colaboracion en una sola plataforma.</text>
      <rect x="40" y="172" width="170" height="42" rx="14" fill="#ffffff" opacity="0.9" />
      <text x="58" y="199" font-family="Segoe UI, Arial" font-size="18" fill="#1f3d99">Explorar datos</text>
      <rect x="230" y="172" width="170" height="42" rx="14" fill="rgba(255,255,255,0.3)" stroke="#ffffff" />
      <text x="252" y="199" font-family="Segoe UI, Arial" font-size="18" fill="#ffffff">Sumar comunidad</text>
      <g transform="translate(600 44)">
        <rect width="180" height="60" rx="18" fill="rgba(255,255,255,0.12)" stroke="rgba(255,255,255,0.3)" />
        <text x="30" y="36" font-family="Segoe UI, Arial" font-size="24" font-weight="700" fill="#ffffff">45</text>
        <text x="80" y="36" font-family="Segoe UI, Arial" font-size="14" fill="#d2e4ff">Municipios</text>
      </g>
    </g>
    <g transform="translate(64 360)">
      <text x="0" y="0" font-family="Segoe UI, Arial" font-size="24" font-weight="700" fill="#1e2a48">Modulos destacados</text>
      <text x="0" y="32" font-family="Segoe UI, Arial" font-size="16" fill="#556087">Inteligencia, rutas de denuncia y colaboracion territorial.</text>
    </g>
    <g transform="translate(64 408)">
      <rect width="396" height="260" rx="24" fill="#ffffff" stroke="#dde3f7" />
      <rect x="28" y="30" width="88" height="28" rx="10" fill="rgba(75,123,236,0.12)" />
      <text x="40" y="50" font-family="Segoe UI, Arial" font-size="14" fill="#1f3d99">Analitica</text>
      <text x="28" y="90" font-family="Segoe UI, Arial" font-size="22" font-weight="600" fill="#1e2a48">Observatorio de violencia</text>
      <text x="28" y="124" font-family="Segoe UI, Arial" font-size="15" fill="#5a648c">Mapas, indicadores y alertas predictivas.</text>
      <line x1="28" y1="152" x2="368" y2="152" stroke="#eef1fb" />
      <circle cx="64" cy="190" r="12" fill="#4b7bec" opacity="0.4" />
      <circle cx="120" cy="190" r="12" fill="#4b7bec" opacity="0.7" />
      <circle cx="176" cy="190" r="12" fill="#4b7bec" opacity="0.2" />
    </g>
    <g transform="translate(480 408)">
      <rect width="396" height="260" rx="24" fill="#ffffff" stroke="#dde3f7" />
      <rect x="28" y="30" width="98" height="28" rx="10" fill="rgba(27,158,166,0.14)" />
      <text x="42" y="50" font-family="Segoe UI, Arial" font-size="14" fill="#1b9ea6">Denuncias</text>
      <text x="28" y="90" font-family="Segoe UI, Arial" font-size="22" font-weight="600" fill="#1e2a48">Ruta digital segura</text>
      <text x="28" y="124" font-family="Segoe UI, Arial" font-size="15" fill="#5a648c">Formulario guiado y seguimiento.</text>
      <line x1="28" y1="152" x2="368" y2="152" stroke="#eef1fb" />
      <rect x="48" y="176" width="112" height="18" rx="9" fill="#4b7bec" opacity="0.6" />
      <rect x="48" y="204" width="220" height="18" rx="9" fill="#4b7bec" opacity="0.3" />
    </g>
    <g transform="translate(896 408)">
      <rect width="300" height="260" rx="24" fill="#10172a" />
      <text x="28" y="56" font-family="Segoe UI, Arial" font-size="16" fill="#53d8ff">Alertas recientes</text>
      <text x="28" y="92" font-family="Segoe UI, Arial" font-size="18" fill="#ffffff">Zona 18 - robo</text>
      <text x="28" y="120" font-family="Segoe UI, Arial" font-size="14" fill="rgba(255,255,255,0.7)">Hace 2h - PNC en ruta</text>
      <line x1="28" y1="140" x2="272" y2="140" stroke="rgba(255,255,255,0.12)" />
      <text x="28" y="176" font-family="Segoe UI, Arial" font-size="18" fill="#ffffff">Mixco - extorsion</text>
      <text x="28" y="204" font-family="Segoe UI, Arial" font-size="14" fill="rgba(255,255,255,0.7)">Hace 4h - MP coordinado</text>
    </g>
  </g>
</svg>
