<svg width="144" height="144" viewBox="0 0 144 144" fill="none" xmlns="http://www.w3.org/2000/svg">
  <rect width="144" height="144" rx="32" fill="url(#paint0_linear)" />
  <path
    d="M72 36C50.804 36 36 52.884 36 72.5C36 91.868 51.308 108 72 108C92.692 108 108 91.868 108 72.5C108 52.884 93.196 36 72 36ZM72 46.4C85.194 46.4 95.6 58.544 95.6 72.5C95.6 86.2 85.194 98 72 98C58.806 98 48.4 86.2 48.4 72.5C48.4 58.544 58.806 46.4 72 46.4Z"
    fill="white"
    opacity="0.8"
  />
  <path
    d="M72 56C64.268 56 58 62.268 58 70C58 77.732 64.268 84 72 84C79.732 84 86 77.732 86 70C86 62.268 79.732 56 72 56Z"
    fill="white"
  />
  <defs>
    <linearGradient id="paint0_linear" x1="24" y1="24" x2="120" y2="120" gradientUnits="userSpaceOnUse">
      <stop stop-color="#1F3D99" />
      <stop offset="0.5" stop-color="#4B7BEC" />
      <stop offset="1" stop-color="#1B9EA6" />
    </linearGradient>
  </defs>
</svg>
