<svg xmlns="http://www.w3.org/2000/svg" width="1440" height="900">
  <defs>
    <linearGradient id="bg" x1="0" y1="0" x2="1" y2="1">
      <stop offset="0" stop-color="#10203d" />
      <stop offset="1" stop-color="#1b9ea6" />
    </linearGradient>
  </defs>
  <rect width="100%" height="100%" fill="url(#bg)" />
  <g transform="translate(72 64)">
    <rect width="1296" height="776" rx="36" fill="#f9f9ff" />
    <text x="104" y="132" font-family="Segoe UI, Arial" font-size="36" font-weight="700" fill="#1f2a44">Ruta digital de denuncias</text>
    <text x="104" y="170" font-family="Segoe UI, Arial" font-size="18" fill="#566087">Registro guiado, evidencias y acompanamiento.</text>
    <g transform="translate(104 212)">
      <rect width="520" height="480" rx="26" fill="#ffffff" stroke="#dde3f7" />
      <text x="32" y="56" font-family="Segoe UI, Arial" font-size="22" font-weight="600" fill="#1f2a44">Paso 1 - Registro seguro</text>
      <rect x="32" y="84" width="456" height="44" rx="14" fill="#f2f4ff" />
      <text x="44" y="111" font-family="Segoe UI, Arial" font-size="16" fill="#4b5a88">Nombre completo</text>
      <rect x="32" y="140" width="456" height="44" rx="14" fill="#ffffff" stroke="#e6ebfb" />
      <text x="44" y="167" font-family="Segoe UI, Arial" font-size="16" fill="#6a7aa5">Tipo de incidente</text>
      <rect x="32" y="204" width="456" height="124" rx="18" fill="#ffffff" stroke="#e6ebfb" stroke-dasharray="6 6" />
      <text x="52" y="236" font-family="Segoe UI, Arial" font-size="16" fill="#6a7aa5">Adjunta evidencia</text>
      <rect x="32" y="348" width="220" height="44" rx="14" fill="#1f3d99" />
      <text x="66" y="376" font-family="Segoe UI, Arial" font-size="16" fill="#ffffff">Guardar progreso</text>
      <rect x="270" y="348" width="218" height="44" rx="14" fill="#ffffff" stroke="#1f3d99" />
      <text x="314" y="376" font-family="Segoe UI, Arial" font-size="16" fill="#1f3d99">Siguiente paso</text>
    </g>
    <g transform="translate(664 212)">
      <rect width="304" height="222" rx="26" fill="#10172a" />
      <text x="32" y="58" font-family="Segoe UI, Arial" font-size="18" fill="#53d8ff">Canales activos</text>
      <text x="32" y="96" font-family="Segoe UI, Arial" font-size="16" fill="#ffffff">110 - Emergencias</text>
      <text x="32" y="126" font-family="Segoe UI, Arial" font-size="13" fill="rgba(255,255,255,0.7)">Coordinacion PNC</text>
      <line x1="32" y1="140" x2="272" y2="140" stroke="rgba(255,255,255,0.14)" />
      <text x="32" y="176" font-family="Segoe UI, Arial" font-size="16" fill="#ffffff">1574 - Antiextorsiones</text>
    </g>
    <g transform="translate(664 462)">
      <rect width="528" height="230" rx="26" fill="#ffffff" stroke="#dde3f7" />
      <text x="32" y="52" font-family="Segoe UI, Arial" font-size="22" font-weight="600" fill="#1f2a44">Timeline del reporte</text>
      <g transform="translate(40 92)">
        <circle cx="16" cy="16" r="16" fill="#4b7bec" />
        <text x="44" y="20" font-family="Segoe UI, Arial" font-size="16" fill="#1f2a44">Clasificacion del caso</text>
        <circle cx="16" cy="72" r="16" fill="#4b7bec" opacity="0.6" />
        <text x="44" y="76" font-family="Segoe UI, Arial" font-size="16" fill="#6a7aa5">Derivacion institucional</text>
        <circle cx="16" cy="128" r="16" fill="#4b7bec" opacity="0.4" />
        <text x="44" y="132" font-family="Segoe UI, Arial" font-size="16" fill="#6a7aa5">Seguimiento y cierre</text>
      </g>
    </g>
  </g>
</svg>
